HIERARCHY
ROOT Hips
{
  OFFSET 3.13124 94.3669 -3.18751
  CHANNELS  6 Xposition Yposition Zposition Zrotation Xrotation Yrotation
  JOINT LeftUpLeg
  {
    OFFSET 8.64259 1.95398 -2.38835
    CHANNELS 3 Zrotation Xrotation Yrotation
    JOINT LeftLeg
    {
      OFFSET 43.7702 0 0
      CHANNELS 3 Zrotation Xrotation Yrotation
      JOINT LeftFoot
      {
        OFFSET 40.6238 0 0
        CHANNELS 3 Zrotation Xrotation Yrotation
        JOINT LeftToeBase
        {
          OFFSET 12.7242 0 0
          CHANNELS 3 Zrotation Xrotation Yrotation
          End Site
          {
            OFFSET 0 0 0
          }
        }
      }
    }
  }
  JOINT RightUpLeg
  {
    OFFSET -8.2249 1.95398 -2.59336
    CHANNELS 3 Zrotation Xrotation Yrotation
    JOINT RightLeg
    {
      OFFSET 43.5653 0 0
      CHANNELS 3 Zrotation Xrotation Yrotation
      JOINT RightFoot
      {
        OFFSET 40.6238 0 0
        CHANNELS 3 Zrotation Xrotation Yrotation
        JOINT RightToeBase
        {
          OFFSET 12.7242 0 0
          CHANNELS 3 Zrotation Xrotation Yrotation
          End Site
          {
            OFFSET 0 0 0
          }
        }
      }
    }
  }
  JOINT Spine
  {
    OFFSET 0.165834 0.87714 6.61349
    CHANNELS 3 Zrotation Xrotation Yrotation
    JOINT Spine1
    {
      OFFSET 7.38962 1.71661e-005 0
      CHANNELS 3 Zrotation Xrotation Yrotation
      JOINT Spine2
      {
        OFFSET 11.9445 1.14441e-005 0
        CHANNELS 3 Zrotation Xrotation Yrotation
        JOINT Spine3
        {
          OFFSET 14.7254 4.19617e-005 0
          CHANNELS 3 Zrotation Xrotation Yrotation
          JOINT Spine4
          {
            OFFSET 10.9679 0 0
            CHANNELS 3 Zrotation Xrotation Yrotation
            JOINT RightShoulder
            {
              OFFSET 2.46616 -1.6653 3.69651
              CHANNELS 3 Zrotation Xrotation Yrotation
              JOINT RightArm
              {
                OFFSET 13.0012 0 0
                CHANNELS 3 Zrotation Xrotation Yrotation
                JOINT RightForeArm
                {
                  OFFSET 28.7848 1.52588e-005 0
                  CHANNELS 3 Zrotation Xrotation Yrotation
                  JOINT RightHand
                  {
                    OFFSET 26.5688 1.52588e-005 0
                    CHANNELS 3 Zrotation Xrotation Yrotation
                    End Site
                    {
                      OFFSET 0 0 0
                    }
                  }
                }
              }
            }
            JOINT LeftShoulder
            {
              OFFSET 2.38034 -1.29275 -3.75231
              CHANNELS 3 Zrotation Xrotation Yrotation
              JOINT LeftArm
              {
                OFFSET 16.3182 6.10352e-005 0
                CHANNELS 3 Zrotation Xrotation Yrotation
                JOINT LeftForeArm
                {
                  OFFSET 27.0901 0 0
                  CHANNELS 3 Zrotation Xrotation Yrotation
                  JOINT LeftHand
                  {
                    OFFSET 24.5451 1.52588e-005 0
                    CHANNELS 3 Zrotation Xrotation Yrotation
                    End Site
                    {
                      OFFSET 0 0 0
                    }
                  }
                }
              }
            }
            JOINT Neck
            {
              OFFSET 5.0226 -0.0266342 0
              CHANNELS 3 Zrotation Xrotation Yrotation
              JOINT Head
              {
                OFFSET 6.69363 2.86102e-005 0
                CHANNELS 3 Zrotation Xrotation Yrotation
                End Site
                {
                  OFFSET 0 0 0
                }
              }
            }
          }
        }
      }
    }
  }
}
MOTION
Frames:	18
Frame Time:	0.0333333
68.1487 96.146 27.9032 90.5495 63.8138 89.8696 178.852 7.15848 92.0674 -4.3639 -16.9853 -1.02091 38.4903 -21.7781 -20.5538 28.7808 5.53739e-006 1.2027e-005 178.505 21.8782 84.2783 -45.025 -4.82563 -0.558204 42.3807 6.49961 6.40271 28.7808 1.54857e-005 1.71317e-005 -1.31124 7.05708 -92.4101 12.9494 -3.48777 1.49789 1.28208 -3.41955 1.65046 -21.2898 -3.78068 0.376408 -1.27715 -3.7807 0.376397 120.886 -52.2794 -53.9563 -2.3137 22.6214 5.03527 3.29695 68.5277 -9.81396 -49.0744 7.78559 -22.3541 -89.7863 -20.4585 69.957 -14.7937 -20.0229 -64.7281 2.0363 -13.1263 -3.05644 -28.2348 5.3776 -27.6159 17.7692 18.974 -14.23 -18.2541 21.5046 7.74696 
66.8558 94.6541 24.2799 95.5578 57.8283 83.3035 177.113 1.94231 88.186 -4.60377 -21.8741 -1.38091 48.2479 -22.6149 -17.8028 28.7808 5.53739e-006 1.2027e-005 179.989 28.0943 83.143 -54.1797 -7.57548 -0.905136 45.2419 2.09943 2.37437 28.7808 1.54857e-005 1.71317e-005 -1.93072 7.06491 -90.9209 12.9109 -3.85806 2.11401 1.24362 -3.76133 2.28188 -21.3346 -4.31478 0.855082 -1.32195 -4.31481 0.855062 116.988 -46.2844 -58.0293 -0.956576 22.3669 4.41557 9.43026 78.2496 -15.7657 -49.0829 9.3271 -25.7816 -88.5928 -22.5409 73.4207 -14.519 -20.6599 -68.8927 1.71199 -38.2037 -2.66802 -30.0929 4.28676 -22.1627 12.9017 21.7297 -13.4984 -18.0742 23.4114 8.84006 
65.3298 92.9163 20.6452 98.1333 53.0696 77.3903 173.484 -0.985554 80.7423 -5.24476 -31.5057 -2.21389 56.7851 -20.438 -13.57 28.7808 5.53739e-006 1.2027e-005 -178.609 33.5566 81.6209 -58.9408 -6.23845 -0.939272 48.1879 -1.84318 -0.888628 28.7808 1.54857e-005 1.71317e-005 -2.48412 6.97671 -89.4841 13.0522 -4.36674 3.28438 1.38402 -4.21806 3.47342 -21.1969 -5.15148 1.81827 -1.18429 -5.1515 1.81827 115.482 -42.3586 -59.3798 -1.41955 22.9274 2.12275 105.514 87.1683 -111.628 -41.0939 9.57801 -30.699 -87.9044 -23.6151 75.286 -13.9908 -21.7086 -72.8024 1.51888 -60.8868 -2.33953 -28.3628 4.07104 -22.1912 12.6811 22.8943 -15.2819 -21.9175 24.4151 10.8892 
64.1216 91.3877 17.5203 95.9689 49.9799 77.7793 170.946 0.089471 76.5539 -5.93214 -38.9087 -3.01418 64.3104 -21.5193 -12.1642 28.7808 5.53739e-006 1.2027e-005 -179.533 38.7237 85.5585 -57.4971 -3.7026 -0.775926 45.9674 -5.05513 -3.44103 28.7808 1.54857e-005 1.71317e-005 -2.85784 6.86515 -89.1834 13.3307 -4.93413 4.19532 1.6615 -4.7449 4.40833 -20.9244 -5.96607 2.51635 -0.911706 -5.9661 2.51632 118.938 -45.2999 -54.6172 -5.19871 25.2937 -3.60391 158.766 81.2274 -164.746 -29.8762 7.52056 -33.3274 -87.7653 -23.1567 75.3804 -12.4742 -24.103 -76.4582 1.53033 -77.4317 -1.98635 -25.7036 4.45932 -26.1528 19.0142 21.5135 -20.847 -28.4795 24.2245 13.7476 
63.2814 90.4459 14.4759 96.0678 48.456 77.632 169.373 -0.681324 74.2334 -6.06386 -40.0807 -3.15848 69.3907 -20.9022 -10.456 28.7808 5.53739e-006 1.2027e-005 179.073 37.1918 90.5119 -48.5201 -10.1183 -0.971448 49.9935 0.769662 1.07514 28.7808 1.54857e-005 1.71317e-005 -3.22059 6.82943 -89.0334 13.4411 -5.55371 4.62673 1.77294 -5.34495 4.86659 -20.8304 -6.68636 2.74056 -0.817791 -6.68636 2.74055 122.579 -46.8586 -49.4554 -8.3509 27.5282 -7.81527 164.184 77.4424 -170.092 -19.5878 4.67138 -32.6915 -89.1557 -23.8263 72.7317 -10.6541 -26.8986 -78.4304 -176.898 -87.4641 179.892 -24.0175 4.76519 -29.2757 20.516 21.0588 -21.4121 -29.8826 24.0937 13.4337 
62.7049 89.587 11.3366 97.1927 48.1299 77.3173 168.225 -2.40513 72.5194 -5.95488 -39.104 -3.03807 73.6336 -21.2646 -9.55137 28.7808 5.53739e-006 1.2027e-005 178.642 35.0286 95.5529 -41.3296 -12.042 -0.981276 47.6838 7.25841 6.21401 28.7808 1.54857e-005 1.71317e-005 -3.67258 6.83229 -88.8 13.4607 -6.33439 4.9257 1.79492 -6.11177 5.19984 -20.8362 -7.52041 2.78816 -0.823504 -7.52044 2.78814 125.155 -48.928 -46.3939 -12.2514 30.9222 -6.73053 141.852 74.489 -147.052 -15.3171 3.4394 -31.4877 -90.0289 -23.6 70.8221 -10.0602 -27.6962 -78.1482 -177.019 -79.2697 179.976 -26.464 5.93961 -32.2263 20.6433 20.2412 -24.3608 -32.5537 22.8877 17.8797 
62.1071 88.9834 8.34366 97.7229 47.8054 77.4545 167.091 -3.40247 70.868 -6.05448 -40.0136 -3.14955 76.2899 -20.6652 -8.61743 28.7808 5.53739e-006 1.2027e-005 179.188 32.2138 100.014 -34.5033 -7.37897 -0.625825 44.7653 8.12981 7.28417 28.7808 1.54857e-005 1.71317e-005 -3.94672 6.7735 -88.7271 13.5966 -6.83182 5.03863 1.93255 -6.60386 5.33334 -20.7173 -8.02807 2.74777 -0.704617 -8.02808 2.74776 126.368 -48.8193 -44.5559 -13.7944 36.0612 3.75613 94.8787 60.4849 -99.9401 -15.7962 3.54554 -31.4418 -91.1056 -23.725 68.646 -10.193 -27.5543 -78.3478 -177.193 -73.0293 179.985 -23.1463 5.306 -33.2126 18.6615 20.7698 -23.2495 -31.1786 22.8079 18.1752 
61.6262 88.6343 5.22955 97.9023 48.6679 78.4944 166.637 -4.7108 70.2269 -5.92142 -38.7974 -3.00164 77.4935 -20.3841 -8.21174 28.7808 5.53739e-006 1.2027e-005 -179.648 29.6221 103.148 -29.4626 2.74006 0.0340194 34.2684 9.96573 10.5911 28.7808 1.54857e-005 1.71317e-005 -4.21508 6.74499 -88.6805 13.6489 -7.38002 4.8607 1.98889 -7.15923 5.18131 -20.6937 -8.49757 2.40733 -0.681041 -8.49754 2.40732 128.074 -48.8918 -42.0693 -15.79 37.6625 7.37571 78.3384 56.2183 -85.7944 -13.4186 3.12277 -32.7041 -92.3347 -23.3685 65.9491 -10.8855 -26.478 -77.6123 -177.21 -72.4683 179.985 -18.0621 4.2121 -34.8737 17.1988 21.3916 -21.6934 -29.8241 23.09 17.426 
61.0337 88.6735 1.8193 98.981 51.12 78.8299 166.262 -6.7935 69.7068 -5.72389 -36.85 -2.77595 76.2309 -20.1374 -8.39199 28.7808 5.53739e-006 1.2027e-005 -178.225 25.6698 103.484 -24.3406 4.89738 0.194404 25.8335 3.81693 5.60262 28.7808 1.54857e-005 1.71317e-005 -4.53625 6.78519 -88.5599 13.5416 -8.08588 4.58821 1.88654 -7.87636 4.94074 -20.8349 -9.0884 1.93049 -0.822267 -9.08839 1.93048 130.156 -48.2572 -38.7148 -17.4383 39.3127 10.194 69.9567 51.1159 -79.5377 -14.3272 3.45719 -33.4824 -93.357 -22.257 63.2726 -11.729 -25.1849 -76.7351 -177.382 -67.0725 179.989 -13.104 3.08183 -37.253 15.4055 21.9515 -20.4274 -28.627 23.0863 17.8241 
60.2817 89.1027 -1.82465 100.021 54.34 78.6242 166.122 -7.98986 69.0369 -7.6131 -35.3022 -2.60858 72.1763 -22.8899 -10.6867 28.7808 5.53739e-006 1.2027e-005 -178.269 23.5629 102.203 -24.9626 0.157855 -0.085808 38.5441 2.96632 3.48362 28.7808 1.54857e-005 1.71317e-005 -4.82076 6.77981 -88.3608 13.4996 -8.81725 4.28174 1.85035 -8.62045 4.66747 -20.9154 -9.69313 1.41258 -0.902727 -9.69315 1.41256 131.825 -46.8892 -35.5741 -18.7469 41.4317 13.0791 73.0307 45.918 -82.7948 -14.6839 3.75969 -35.2409 -94.553 -20.9362 60.0421 -12.2765 -24.2035 -75.1875 -177.57 -61.6487 179.991 -7.36506 1.57859 -41.5449 13.7895 22.6243 -19.1146 -28.3599 23.0248 18.8146 
59.5037 88.9333 -4.91025 101.195 58.3102 78.804 173.538 -0.0375846 70.9852 -31.4437 -27.5973 -1.69051 67.8009 -33.2423 -17.5727 28.7808 5.53739e-006 1.2027e-005 -178.901 23.6792 101.636 -28.8375 -0.908609 -0.178801 46.3619 -0.404431 0.21108 28.7808 1.54857e-005 1.71317e-005 -5.12481 6.87657 -88.6304 13.3311 -9.47773 3.98758 1.6876 -9.29321 4.4035 -21.1226 -10.2339 0.927618 -1.10995 -10.2339 0.927599 133.779 -46.5439 -32.5377 -21.0152 43.3577 16.7974 80.3016 41.939 -88.4253 -12.4851 3.47634 -37.9097 -95.53 -19.1512 56.8742 -13.1648 -22.89 -74.0587 -177.614 -60.4369 179.991 -0.92458 -0.650587 -47.4672 13.3283 22.3631 -20.5495 -29.2042 22.239 21.7603 
58.9356 88.2419 -7.2606 103.066 62.4499 79.0557 178.513 6.11382 75.5567 -48.8182 -12.3247 -0.240828 52.1974 -38.9023 -28.2828 28.7808 5.53739e-006 1.2027e-005 -179.496 24.7592 102.903 -32.4496 6.17457 0.203489 50.7135 -3.75083 -2.33087 28.7808 1.54857e-005 1.71317e-005 -5.34963 7.07959 -89.1533 12.9914 -9.94262 3.67905 1.35237 -9.77127 4.11646 -21.4895 -10.5839 0.488795 -1.47685 -10.5839 0.488794 135.104 -46.5017 -30.5994 -23.5968 44.2681 20.8187 87.9656 39.6521 -93.5414 -9.65077 2.88711 -40.6683 -96.5129 -17.3058 53.5013 -13.5342 -22.1919 -72.185 -177.6 -60.8103 179.991 3.77673 -2.50494 -47.3391 13.6244 21.2961 -24.1899 -30.4095 20.9987 25.6998 
58.0954 87.0847 -9.42256 104.284 66.5913 79.005 -178.867 13.7319 78.4289 -63.4228 -15.0369 -0.103746 36.0065 -40.9319 -39.3217 28.7808 5.53739e-006 1.2027e-005 179.516 27.029 103.93 -37.2076 16.0521 0.800322 56.3063 -6.85857 -4.31952 28.7808 1.54857e-005 1.71317e-005 -5.51134 7.19001 -89.4754 12.8304 -10.2733 3.59181 1.19412 -10.1039 4.04376 -21.6697 -10.8733 0.306469 -1.65704 -10.8733 0.306445 135.918 -46.1824 -29.2467 -25.7801 45.266 24.5546 93.6897 36.5342 -96.923 -7.76983 2.25719 -40.4885 -96.9283 -15.6792 51.3936 -13.8914 -21.6044 -70.8825 -177.579 -61.3893 179.991 8.14204 -4.00969 -45.1441 13.817 20.0051 -27.8727 -30.3773 20.069 28.3415 
56.835 85.7137 -11.6792 103.574 69.4517 78.9716 -177.235 20.2656 79.6242 -74.5077 -21.2125 -0.234947 39.0655 -42.4347 -38.7975 28.7808 5.53739e-006 1.2027e-005 178.131 30.3978 102.37 -44.6854 18.3807 0.852087 62.5424 -6.83218 -3.90836 28.7808 1.54857e-005 1.71317e-005 -5.56129 7.15685 -89.4328 12.9178 -10.3243 3.78564 1.28146 -10.1478 4.24012 -21.5868 -10.9794 0.472115 -1.57418 -10.9794 0.472104 136.661 -45.9374 -28.0282 -27.0167 46.6652 27.253 96.7328 32.5724 -98.1905 -4.40496 1.13286 -39.1799 -96.7003 -14.5465 50.9394 -14.0943 -21.3256 -70.5294 -177.617 -60.3491 179.991 11.5764 -5.26021 -44.8872 15.0253 18.7653 -30.7226 -30.9661 19.4302 29.6346 
55.4186 84.9682 -13.456 98.9201 69.3991 83.8591 -176.797 27.6313 81.9828 -82.1094 -38.3318 -1.45533 39.6765 -38.1769 -34.6144 28.7808 5.53739e-006 1.2027e-005 177.388 33.1888 101.804 -48.786 18.5334 0.783027 64.8631 -4.71038 -2.62625 28.7808 1.54857e-005 1.71317e-005 -5.22726 7.17418 -89.5325 12.836 -9.8267 3.41559 1.19669 -9.66692 3.84811 -21.6389 -10.3944 0.27349 -1.62625 -10.3944 0.273477 138.029 -46.9956 -26.7354 -27.2819 48.4389 28.0569 99.7469 28.5564 -99.0713 -1.66612 0.284376 -38.3432 -95.6791 -13.6412 52.5917 -14.123 -21.3072 -71.0677 -177.649 -59.4731 179.992 13.6847 -6.02284 -44.6595 18.8753 17.7372 -31.3087 -32.4315 19.5498 28.2388 
53.9225 84.7743 -15.0288 96.7598 68.8877 86.3687 -178.079 33.1315 86.4033 -85.7226 -45.7507 -2.15898 41.0423 -27.1869 -24.4646 28.7808 5.53739e-006 1.2027e-005 177.277 34.0098 100.919 -50.4406 18.3919 0.750155 66.1437 -2.81193 -1.55499 28.7808 1.54857e-005 1.71317e-005 -4.9102 7.27954 -89.6638 12.5949 -9.31168 3.10799 0.952851 -9.16591 3.5177 -21.8521 -9.81141 0.141448 -1.83943 -9.8114 0.141434 138.244 -48.8005 -27.5018 -26.7945 49.5363 27.2106 104.076 26.3437 -100.675 0.0385208 -0.220738 -37.8478 -95.064 -13.7381 54.0123 -13.3712 -22.1376 -70.042 -177.663 -59.1104 179.992 13.3632 -5.69839 -43.396 20.8824 17.2234 -31.5309 -32.768 19.6782 27.7608 
52.5274 85.047 -16.7285 96.234 70.3302 86.6562 179.735 34.7244 91.2227 -82.7196 -52.8981 -3.34236 46.2043 -23.9356 -19.53 28.7808 5.53739e-006 1.2027e-005 177.692 33.7937 98.7681 -51.1328 19.0163 0.771528 66.9336 -0.999698 -0.583418 28.7808 1.54857e-005 1.71317e-005 -4.75146 7.3289 -89.5606 12.4614 -9.07355 3.01652 0.817857 -8.93202 3.41562 -21.9736 -9.55708 0.126328 -1.96096 -9.5571 0.126317 138.043 -50.4089 -28.703 -26.3948 50.5031 25.8128 107.221 25.0044 -101.776 0.647722 -0.376857 -35.8345 -94.8333 -14.4855 55.1244 -13.1548 -22.1901 -68.0491 -177.584 -61.2596 179.991 11.4659 -4.85648 -42.2268 20.6342 17.4221 -31.0749 -32.1874 19.8031 27.6906 
51.1591 85.5741 -18.3924 93.9762 73.5024 88.9419 177.371 35.5214 97.3663 -75.4797 -54.7355 -3.98477 52.348 -19.174 -13.9534 28.7808 5.53739e-006 1.2027e-005 178.217 33.413 96.7039 -50.599 21.4292 0.952764 67.4333 1.3294 0.636367 28.7808 1.54857e-005 1.71317e-005 -4.65705 7.35146 -89.5115 12.3884 -8.95061 2.88289 0.74431 -8.8151 3.27663 -22.0398 -9.39981 0.03637 -2.0272 -9.39983 0.0363503 138.257 -51.894 -29.2438 -24.681 50.4044 22.8419 109.25 25.5292 -102.947 2.40259 -0.893433 -37.0914 -94.5354 -14.3227 55.6438 -12.8371 -22.3073 -65.8341 -177.527 -62.8534 179.991 12.9357 -5.40278 -42.4869 20.2687 16.662 -31.8104 -31.7872 19.0858 28.5275 
